<?xml version="1.0" encoding="utf-8"?>
<svg xmlns="http://www.w3.org/2000/svg" style="margin: auto; background: none; display: block; shape-rendering: auto;" width="277" height="232" preserveAspectRatio="xMidYMid">
<style type="text/css">
  text {
    text-anchor: middle; font-size: 61px; opacity: 0;
  }
</style>
<g style="transform-origin:138.5px 116px;transform:scale(1)">
<g transform="translate(138.5,116)">
  <g transform="translate(0,0)"><g class="path" style="transform: scale(0.91); transform-origin: -111.9px -6.59097px; animation: 1s linear -0.5775s infinite normal forwards running breath-0b6c514b-160a-4d5a-a496-e2254a678680;"><path d="M14.27-39.79L14.27 0L4.20 0L4.20-50.25L8.07-50.25L14.27-39.79" fill="#3be8b0" stroke="none" stroke-width="none" transform="translate(-121.13497924804688,18.5340251159668)" style="fill: rgb(59, 232, 176);"></path></g><g class="path" style="transform: scale(0.91); transform-origin: -81.33px 1.25902px; animation: 1s linear -0.495s infinite normal forwards running breath-0b6c514b-160a-4d5a-a496-e2254a678680;"><path d="M59.00-17.28L59.00-17.28L59.00-17.28Q59.00-14.59 58.29-12.24L58.29-12.24L58.29-12.24Q57.57-9.89 56.31-7.89L56.31-7.89L56.31-7.89Q55.04-5.90 53.26-4.30L53.26-4.30L53.26-4.30Q51.47-2.71 49.34-1.61L49.34-1.61L49.34-1.61Q47.21-0.51 44.78 0.09L44.78 0.09L44.78 0.09Q42.35 0.69 39.79 0.69L39.79 0.69L39.79 0.69Q37.23 0.69 34.82 0.09L34.82 0.09L34.82 0.09Q32.41-0.51 30.28-1.61L30.28-1.61L30.28-1.61Q28.15-2.71 26.36-4.30L26.36-4.30L26.36-4.30Q24.57-5.90 23.31-7.89L23.31-7.89L23.31-7.89Q22.04-9.89 21.33-12.26L21.33-12.26L21.33-12.26Q20.61-14.62 20.61-17.28L20.61-17.28L20.61-17.28Q20.61-19.93 21.33-22.29L21.33-22.29L21.33-22.29Q22.04-24.66 23.31-26.66L23.31-26.66L23.31-26.66Q24.57-28.65 26.36-30.25L26.36-30.25L26.36-30.25Q28.15-31.84 30.28-32.94L30.28-32.94L30.28-32.94Q32.41-34.04 34.82-34.64L34.82-34.64L34.82-34.64Q37.23-35.24 39.79-35.24L39.79-35.24L39.79-35.24Q42.35-35.24 44.78-34.64L44.78-34.64L44.78-34.64Q47.21-34.04 49.34-32.94L49.34-32.94L49.34-32.94Q51.47-31.84 53.26-30.25L53.26-30.25L53.26-30.25Q55.04-28.65 56.31-26.66L56.31-26.66L56.31-26.66Q57.57-24.66 58.29-22.29L58.29-22.29L58.29-22.29Q59.00-19.93 59.00-17.28zM48.76-17.28L48.76-17.28L48.76-17.28Q48.76-18.71 48.59-20.30L48.59-20.30L48.59-20.30Q48.43-21.89 48.04-23.43L48.04-23.43L48.04-23.43Q47.66-24.96 46.99-26.37L46.99-26.37L46.99-26.37Q46.32-27.79 45.33-28.85L45.33-28.85L45.33-28.85Q44.35-29.90 42.98-30.54L42.98-30.54L42.98-30.54Q41.61-31.19 39.79-31.19L39.79-31.19L39.79-31.19Q38.07-31.19 36.73-30.53L36.73-30.53L36.73-30.53Q35.38-29.87 34.39-28.79L34.39-28.79L34.39-28.79Q33.39-27.70 32.72-26.27L32.72-26.27L32.72-26.27Q32.05-24.84 31.63-23.31L31.63-23.31L31.63-23.31Q31.21-21.77 31.04-20.21L31.04-20.21L31.04-20.21Q30.86-18.65 30.86-17.28L30.86-17.28L30.86-17.28Q30.86-15.91 31.04-14.34L31.04-14.34L31.04-14.34Q31.21-12.78 31.63-11.23L31.63-11.23L31.63-11.23Q32.05-9.68 32.72-8.27L32.72-8.27L32.72-8.27Q33.39-6.85 34.39-5.76L34.39-5.76L34.39-5.76Q35.38-4.68 36.73-4.02L36.73-4.02L36.73-4.02Q38.07-3.37 39.79-3.37L39.79-3.37L39.79-3.37Q41.58-3.37 42.95-4.01L42.95-4.01L42.95-4.01Q44.32-4.65 45.32-5.72L45.32-5.72L45.32-5.72Q46.32-6.79 46.97-8.19L46.97-8.19L46.97-8.19Q47.63-9.59 48.03-11.14L48.03-11.14L48.03-11.14Q48.43-12.69 48.59-14.27L48.59-14.27L48.59-14.27Q48.76-15.85 48.76-17.28" fill="#3be8b0" stroke="none" stroke-width="none" transform="translate(-121.13497924804688,18.5340251159668)" style="fill: rgb(26, 175, 208);"></path></g><g class="path" style="transform: scale(0.91); transform-origin: -39.435px 1.25902px; animation: 1s linear -0.4125s infinite normal forwards running breath-0b6c514b-160a-4d5a-a496-e2254a678680;"><path d="M99.99-34.40L99.99 0L89.92 0L89.92-4.11L89.92-4.11Q88.13-1.67 85.62-0.49L85.62-0.49L85.62-0.49Q83.10 0.69 80.09 0.69L80.09 0.69L80.09 0.69Q76.16 0.69 73.06-0.71L73.06-0.71L73.06-0.71Q69.97-2.11 67.82-4.54L67.82-4.54L67.82-4.54Q65.68-6.97 64.54-10.25L64.54-10.25L64.54-10.25Q63.41-13.52 63.41-17.28L63.41-17.28L63.41-17.28Q63.41-21.03 64.54-24.30L64.54-24.30L64.54-24.30Q65.68-27.58 67.82-30.01L67.82-30.01L67.82-30.01Q69.97-32.44 73.06-33.84L73.06-33.84L73.06-33.84Q76.16-35.24 80.09-35.24L80.09-35.24L80.09-35.24Q82.09-35.24 83.89-34.64L83.89-34.64L83.89-34.64Q85.69-34.04 87.20-32.96L87.20-32.96L87.20-32.96Q88.70-31.87 89.85-30.34L89.85-30.34L89.85-30.34Q90.99-28.80 91.65-26.93L91.65-26.93L96.12-34.40L99.99-34.40zM89.86-17.28L89.86-17.28L89.86-17.28Q89.86-18.62 89.73-20.10L89.73-20.10L89.73-20.10Q89.59-21.59 89.27-23.05L89.27-23.05L89.27-23.05Q88.94-24.51 88.36-25.84L88.36-25.84L88.36-25.84Q87.78-27.16 86.87-28.19L86.87-28.19L86.87-28.19Q85.96-29.22 84.68-29.81L84.68-29.81L84.68-29.81Q83.40-30.41 81.70-30.41L81.70-30.41L81.70-30.41Q80.00-30.41 78.75-29.80L78.75-29.80L78.75-29.80Q77.50-29.19 76.61-28.16L76.61-28.16L76.61-28.16Q75.71-27.13 75.13-25.79L75.13-25.79L75.13-25.79Q74.55-24.45 74.22-22.99L74.22-22.99L74.22-22.99Q73.90-21.53 73.76-20.06L73.76-20.06L73.76-20.06Q73.63-18.59 73.63-17.28L73.63-17.28L73.63-17.28Q73.63-15.96 73.76-14.48L73.76-14.48L73.76-14.48Q73.90-12.99 74.22-11.53L74.22-11.53L74.22-11.53Q74.55-10.07 75.13-8.73L75.13-8.73L75.13-8.73Q75.71-7.39 76.61-6.36L76.61-6.36L76.61-6.36Q77.50-5.33 78.75-4.72L78.75-4.72L78.75-4.72Q80.00-4.11 81.70-4.11L81.70-4.11L81.70-4.11Q83.25-4.11 84.46-4.75L84.46-4.75L84.46-4.75Q85.66-5.39 86.57-6.46L86.57-6.46L86.57-6.46Q87.48-7.54 88.10-8.91L88.10-8.91L88.10-8.91Q88.73-10.28 89.12-11.74L89.12-11.74L89.12-11.74Q89.50-13.19 89.68-14.64L89.68-14.64L89.68-14.64Q89.86-16.08 89.86-17.28" fill="#3be8b0" stroke="none" stroke-width="none" transform="translate(-121.13497924804688,18.5340251159668)" style="fill: rgb(106, 103, 206);"></path></g><g class="path" style="transform: scale(0.91); transform-origin: 3.63502px -4.59598px; animation: 1s linear -0.33s infinite normal forwards running breath-0b6c514b-160a-4d5a-a496-e2254a678680;"><path d="M143.06-47.06L143.06 0L139.19 0L134.72-7.48L134.72-7.48Q134.06-5.60 132.92-4.08L132.92-4.08L132.92-4.08Q131.77-2.56 130.27-1.47L130.27-1.47L130.27-1.47Q128.76-0.39 126.96 0.21L126.96 0.21L126.96 0.21Q125.16 0.80 123.16 0.80L123.16 0.80L123.16 0.80Q119.23 0.80 116.13-0.60L116.13-0.60L116.13-0.60Q113.03-2.00 110.89-4.42L110.89-4.42L110.89-4.42Q108.75-6.85 107.61-10.13L107.61-10.13L107.61-10.13Q106.48-13.40 106.48-17.16L106.48-17.16L106.48-17.16Q106.48-20.91 107.61-24.19L107.61-24.19L107.61-24.19Q108.75-27.46 110.89-29.87L110.89-29.87L110.89-29.87Q113.03-32.29 116.13-33.69L116.13-33.69L116.13-33.69Q119.23-35.09 123.16-35.09L123.16-35.09L123.16-35.09Q126.17-35.09 128.69-33.93L128.69-33.93L128.69-33.93Q131.20-32.76 132.99-30.29L132.99-30.29L132.99-47.06L143.06-47.06zM132.93-17.16L132.93-17.16L132.93-17.16Q132.93-18.35 132.75-19.78L132.75-19.78L132.75-19.78Q132.57-21.21 132.19-22.67L132.19-22.67L132.19-22.67Q131.80-24.13 131.17-25.50L131.17-25.50L131.17-25.50Q130.55-26.87 129.64-27.94L129.64-27.94L129.64-27.94Q128.73-29.01 127.53-29.65L127.53-29.65L127.53-29.65Q126.32-30.29 124.77-30.29L124.77-30.29L124.77-30.29Q123.07-30.29 121.82-29.68L121.82-29.68L121.82-29.68Q120.57-29.07 119.68-28.04L119.68-28.04L119.68-28.04Q118.78-27.02 118.20-25.67L118.20-25.67L118.20-25.67Q117.62-24.33 117.29-22.88L117.29-22.88L117.29-22.88Q116.97-21.42 116.83-19.94L116.83-19.94L116.83-19.94Q116.70-18.47 116.70-17.16L116.70-17.16L116.70-17.16Q116.70-15.85 116.83-14.37L116.83-14.37L116.83-14.37Q116.97-12.90 117.29-11.44L117.29-11.44L117.29-11.44Q117.62-9.98 118.20-8.62L118.20-8.62L118.20-8.62Q118.78-7.27 119.68-6.24L119.68-6.24L119.68-6.24Q120.57-5.21 121.82-4.60L121.82-4.60L121.82-4.60Q123.07-3.99 124.77-3.99L124.77-3.99L124.77-3.99Q126.47-3.99 127.75-4.59L127.75-4.59L127.75-4.59Q129.03-5.18 129.94-6.21L129.94-6.21L129.94-6.21Q130.85-7.24 131.43-8.56L131.43-8.56L131.43-8.56Q132.01-9.89 132.34-11.36L132.34-11.36L132.34-11.36Q132.66-12.84 132.80-14.33L132.80-14.33L132.80-14.33Q132.93-15.82 132.93-17.16" fill="#3be8b0" stroke="none" stroke-width="none" transform="translate(-121.13497924804688,18.5340251159668)" style="fill: rgb(255, 185, 0);"></path></g><g class="path" style="transform: scale(0.91); transform-origin: 35.4px -24.161px; animation: 1s linear -0.2475s infinite normal forwards running breath-0b6c514b-160a-4d5a-a496-e2254a678680;"><path d="M162.03-42.71L162.03-42.71L162.03-42.71Q162.03-41.58 161.60-40.57L161.60-40.57L161.60-40.57Q161.17-39.55 160.42-38.81L160.42-38.81L160.42-38.81Q159.68-38.07 158.67-37.63L158.67-37.63L158.67-37.63Q157.65-37.20 156.52-37.20L156.52-37.20L156.52-37.20Q155.39-37.20 154.39-37.63L154.39-37.63L154.39-37.63Q153.39-38.07 152.65-38.81L152.65-38.81L152.65-38.81Q151.90-39.55 151.47-40.57L151.47-40.57L151.47-40.57Q151.04-41.58 151.04-42.71L151.04-42.71L151.04-42.71Q151.04-43.84 151.47-44.84L151.47-44.84L151.47-44.84Q151.90-45.84 152.65-46.58L152.65-46.58L152.65-46.58Q153.39-47.33 154.39-47.76L154.39-47.76L154.39-47.76Q155.39-48.19 156.52-48.19L156.52-48.19L156.52-48.19Q157.65-48.19 158.67-47.76L158.67-47.76L158.67-47.76Q159.68-47.33 160.42-46.58L160.42-46.58L160.42-46.58Q161.17-45.84 161.60-44.84L161.60-44.84L161.60-44.84Q162.03-43.84 162.03-42.71" fill="#3be8b0" stroke="none" stroke-width="none" transform="translate(-121.13497924804688,18.5340251159668)" style="fill: rgb(252, 99, 107);"></path></g><g class="path" style="transform: scale(0.91); transform-origin: 35.4px 1.34903px; animation: 1s linear -0.165s infinite normal forwards running breath-0b6c514b-160a-4d5a-a496-e2254a678680;"><path d="M161.58-34.37L161.58 0L151.49 0L151.49-34.37L161.58-34.37" fill="#3be8b0" stroke="none" stroke-width="none" transform="translate(-121.13497924804688,18.5340251159668)" style="fill: rgb(59, 232, 176);"></path></g><g class="path" style="transform: scale(0.91); transform-origin: 66.465px 4.57902px; animation: 1s linear -0.0825s infinite normal forwards running breath-0b6c514b-160a-4d5a-a496-e2254a678680;"><path d="M205.19-19.72L205.19-19.72L205.19-19.72Q205.19-16.23 204.34-12.45L204.34-12.45L204.34-12.45Q203.49-8.67 201.97-5.03L201.97-5.03L201.97-5.03Q200.45-1.40 198.34 1.80L198.34 1.80L198.34 1.80Q196.22 5.00 193.69 7.33L193.69 7.33L189.91 5.27L189.91 5.27Q190.71 3.78 191.43 1.94L191.43 1.94L191.43 1.94Q192.14 0.09 192.72-1.98L192.72-1.98L192.72-1.98Q193.31-4.05 193.77-6.25L193.77-6.25L193.77-6.25Q194.23-8.46 194.54-10.62L194.54-10.62L194.54-10.62Q194.85-12.78 195.02-14.82L195.02-14.82L195.02-14.82Q195.18-16.86 195.18-18.62L195.18-18.62L195.18-18.62Q195.18-19.78 195.09-21.10L195.09-21.10L195.09-21.10Q195.00-22.43 194.72-23.75L194.72-23.75L194.72-23.75Q194.44-25.08 193.96-26.30L193.96-26.30L193.96-26.30Q193.48-27.52 192.70-28.44L192.70-28.44L192.70-28.44Q191.91-29.37 190.79-29.93L190.79-29.93L190.79-29.93Q189.67-30.50 188.15-30.50L188.15-30.50L188.15-30.50Q186.66-30.50 185.50-29.83L185.50-29.83L185.50-29.83Q184.34-29.16 183.45-28.07L183.45-28.07L183.45-28.07Q182.55-26.99 181.91-25.59L181.91-25.59L181.91-25.59Q181.27-24.19 180.87-22.71L180.87-22.71L180.87-22.71Q180.47-21.24 180.29-19.81L180.29-19.81L180.29-19.81Q180.11-18.38 180.11-17.25L180.11-17.25L180.11 0L170.01 0L170.01-34.40L173.89-34.40L178.50-26.39L178.50-26.39Q179.34-28.39 180.59-30.02L180.59-30.02L180.59-30.02Q181.84-31.66 183.42-32.82L183.42-32.82L183.42-32.82Q185.00-33.98 186.92-34.61L186.92-34.61L186.92-34.61Q188.84-35.24 191.07-35.24L191.07-35.24L191.07-35.24Q194.65-35.24 197.30-34.07L197.30-34.07L197.30-34.07Q199.95-32.91 201.71-30.84L201.71-30.84L201.71-30.84Q203.46-28.77 204.33-25.93L204.33-25.93L204.33-25.93Q205.19-23.08 205.19-19.72" fill="#3be8b0" stroke="none" stroke-width="none" transform="translate(-121.13497924804688,18.5340251159668)" style="fill: rgb(26, 175, 208);"></path></g><g class="path" style="transform: scale(0.91); transform-origin: 107.05px 8.85402px; animation: 1s linear 0s infinite normal forwards running breath-0b6c514b-160a-4d5a-a496-e2254a678680;"><path d="M246.47-34.40L246.47-4.14L246.47-4.14Q246.47-0.03 245.25 3.60L245.25 3.60L245.25 3.60Q244.03 7.24 241.71 9.96L241.71 9.96L241.71 9.96Q239.38 12.69 236.00 14.28L236.00 14.28L236.00 14.28Q232.62 15.88 228.30 15.88L228.30 15.88L228.30 15.88Q225.92 15.88 223.49 15.34L223.49 15.34L223.49 15.34Q221.07 14.80 218.91 13.69L218.91 13.69L218.91 13.69Q216.75 12.57 215.03 10.86L215.03 10.86L215.03 10.86Q213.32 9.14 212.34 6.82L212.34 6.82L216.69 5.18L216.69 5.18Q217.25 6.64 218.16 7.86L218.16 7.86L218.16 7.86Q219.07 9.08 220.26 9.96L220.26 9.96L220.26 9.96Q221.45 10.84 222.88 11.33L222.88 11.33L222.88 11.33Q224.31 11.82 225.89 11.82L225.89 11.82L225.89 11.82Q228.87 11.82 230.88 10.60L230.88 10.60L230.88 10.60Q232.89 9.38 234.11 7.42L234.11 7.42L234.11 7.42Q235.33 5.45 235.87 2.96L235.87 2.96L235.87 2.96Q236.40 0.48 236.40-2.08L236.40-2.08L236.40-4.11L236.40-4.11Q234.62-1.67 232.10-0.49L232.10-0.49L232.10-0.49Q229.58 0.69 226.58 0.69L226.58 0.69L226.58 0.69Q222.64 0.69 219.55-0.71L219.55-0.71L219.55-0.71Q216.45-2.11 214.30-4.54L214.30-4.54L214.30-4.54Q212.16-6.97 211.03-10.25L211.03-10.25L211.03-10.25Q209.90-13.52 209.90-17.28L209.90-17.28L209.90-17.28Q209.90-21.03 211.03-24.30L211.03-24.30L211.03-24.30Q212.16-27.58 214.30-30.01L214.30-30.01L214.30-30.01Q216.45-32.44 219.55-33.84L219.55-33.84L219.55-33.84Q222.64-35.24 226.58-35.24L226.58-35.24L226.58-35.24Q228.57-35.24 230.37-34.64L230.37-34.64L230.37-34.64Q232.18-34.04 233.68-32.96L233.68-32.96L233.68-32.96Q235.18-31.87 236.33-30.34L236.33-30.34L236.33-30.34Q237.48-28.80 238.13-26.93L238.13-26.93L242.60-34.40L246.47-34.40zM236.35-17.28L236.35-17.28L236.35-17.28Q236.35-18.62 236.21-20.10L236.21-20.10L236.21-20.10Q236.08-21.59 235.75-23.05L235.75-23.05L235.75-23.05Q235.42-24.51 234.84-25.84L234.84-25.84L234.84-25.84Q234.26-27.16 233.35-28.19L233.35-28.19L233.35-28.19Q232.44-29.22 231.16-29.81L231.16-29.81L231.16-29.81Q229.88-30.41 228.18-30.41L228.18-30.41L228.18-30.41Q226.49-30.41 225.24-29.80L225.24-29.80L225.24-29.80Q223.98-29.19 223.09-28.16L223.09-28.16L223.09-28.16Q222.20-27.13 221.62-25.79L221.62-25.79L221.62-25.79Q221.04-24.45 220.71-22.99L220.71-22.99L220.71-22.99Q220.38-21.53 220.25-20.06L220.25-20.06L220.25-20.06Q220.11-18.59 220.11-17.28L220.11-17.28L220.11-17.28Q220.11-15.96 220.25-14.48L220.25-14.48L220.25-14.48Q220.38-12.99 220.71-11.53L220.71-11.53L220.71-11.53Q221.04-10.07 221.62-8.73L221.62-8.73L221.62-8.73Q222.20-7.39 223.09-6.36L223.09-6.36L223.09-6.36Q223.98-5.33 225.24-4.72L225.24-4.72L225.24-4.72Q226.49-4.11 228.18-4.11L228.18-4.11L228.18-4.11Q229.73-4.11 230.94-4.75L230.94-4.75L230.94-4.75Q232.15-5.39 233.05-6.46L233.05-6.46L233.05-6.46Q233.96-7.54 234.59-8.91L234.59-8.91L234.59-8.91Q235.21-10.28 235.60-11.74L235.60-11.74L235.60-11.74Q235.99-13.19 236.17-14.64L236.17-14.64L236.17-14.64Q236.35-16.08 236.35-17.28" fill="#3be8b0" stroke="none" stroke-width="none" transform="translate(-121.13497924804688,18.5340251159668)" style="fill: rgb(106, 103, 206);"></path></g></g>
</g>
</g>
<style id="breath-0b6c514b-160a-4d5a-a496-e2254a678680" data-anikit="">@keyframes breath-0b6c514b-160a-4d5a-a496-e2254a678680
{
  0% {
    animation-timing-function: cubic-bezier(0.9647,0.2413,-0.0705,0.7911);
    transform: scale(0.9099999999999999);
  }
  51% {
    animation-timing-function: cubic-bezier(0.9226,0.2631,-0.0308,0.7628);
    transform: scale(1.02994);
  }
  100% {
    transform: scale(0.9099999999999999);
  }
}</style></svg>